<svg xmlns="http://www.w3.org/2000/svg" width="131.187" height="64.096" viewBox="0 0 122.98738 60.089688"><g word-spacing="0" letter-spacing="0" font-size="90" style="line-height:125%"><path d="M26.29 4.086q.585.493.585.985 0 .99-1.362.99l-1.43-.61q-.52-.24-1.038-.37-.454-.18-.974-.24-.52-.12-1.36-.12-1.1 0-2.46.5-1.36.43-2.59 1.23-1.23.74-2.14 1.79-.84 1.05-.9 2.16 0 1.3.84 2.53.91 1.23 2.28 2.53 1.37 1.23 3.06 2.59 1.69 1.35 3.31 2.89 1.69 1.54 3.05 3.33 1.43 1.79 2.21 3.95 2.47.68 4.68 1.48 2.21.74 4.02 1.42.59.37.59.99 0 .92-1.37.92-1.69-.55-3.44-1.04T28.41 31q0 .49.07 1.11.13.55.13 1.043 0 2.833-1.363 4.87-1.3 1.97-3.57 3.2-2.21 1.3-5.13 1.85-2.86.62-5.975.62-2.592 0-4.87-.556-2.27-.5-4.02-1.54-1.69-.99-2.66-2.53-1-1.565-1-3.6 0-2.34 1.04-4.19 1.04-1.91 2.79-3.204 1.755-1.29 4.027-1.97 2.34-.68 4.87-.68 2.01 0 4.15.37 2.14.31 4.863.87-.517-1.17-1.686-2.46-1.17-1.36-2.6-2.71-1.43-1.35-2.92-2.77-1.5-1.47-2.79-2.95-1.24-1.48-2.02-2.96-.78-1.54-.78-3.08 0-1.48.84-2.77t2.27-2.28q1.42-1.05 3.18-1.6 1.82-.62 3.7-.62 3.63 0 7.33 1.663zm-4.218 33.7q1.297-.802 1.816-1.97.522-1.233.522-2.528 0-.862-.26-1.724-.196-.924-.52-1.725l-1.948-.37q-1.818-.31-3.766-.5-1.947-.25-3.96-.25-1.037 0-2.792.24-1.75.24-3.438.92-1.69.68-2.922 1.85Q3.57 32.9 3.57 34.81q0 1.48.78 2.528.778 1.047 2.012 1.725 1.298.616 2.856.862 1.558.31 3.116.31 2.79 0 5.387-.68 2.67-.74 4.35-1.787z"/><path d="M34.34 30.548q.26-2.434.608-4.723.435-2.36 1.043-4.722-3.12.59-4.52 1.034-1.3.442-2 .442-1.04 0-1.04-1.18 0-1.11 1.65-2.07 1.74-1.03 4-1.85 1.39-1.03 2.18-1.85.78-.89 1.31-1.77.52-.96.87-2.07.35-1.11.87-2.66.26-.67.61-2.14.44-1.55 1.05-3.1.7-1.55 1.65-2.73T44.95 0q1.39 0 1.39 1.107 0 .59-.26 1.697-.26 1.034-.784 2.73-.434 1.696-1.13 4.205-.608 2.43-1.39 5.82h1.65q.783-.08 1.566-.08h2.26q1.39 0 2.6.15 1.305.07 2.175.37.87.29.87.96 0 .66-1.564 1.1-1.476.44-3.562.81-2 .37-4.08.74-2.08.29-3.21.66-.95 3.54-1.65 7.6-.69 3.98-.69 7.52v1.18q.09.74.09 1.55.09.74.18 1.33.18.51.44.51.96 0 3.91-2.36 3.05-2.44 6.44-6.94.44-.37 1.04-.37.61 0 1.04.37.44.29.44.81 0 .37-.43.88-1.22 2-2.96 4.14-1.65 2.14-3.48 3.83-1.82 1.7-3.65 2.81-1.82 1.11-3.39 1.11-1.48 0-2.43-.89-.87-.89-1.48-2.14-.52-1.26-.78-2.66-.17-1.404-.17-2.51 0-1.476.09-2.88.17-1.4.35-2.65z"/><path d="M65.382 22.59q-.87 1.786-1.912 3.57-.957 1.787-2.26 3.317-1.218 1.53-2.783 2.72-1.478 1.106-3.39 1.617 0 1.785.52 3.57.523 1.7 2.175 1.7.434 0 .87-.083.52-.08 1.13-.51.52-.25 1.477-.93 1.04-.68 2.17-1.53 1.21-.93 2.26-1.95 1.13-1.1 1.65-2.21.26-.59.78-.59.61 0 1.13.51.52.51.52 1.19 0 .6-1.05 1.87-1.05 1.28-2.44 2.64-1.31 1.36-2.78 2.55-1.39 1.19-2.18 1.53-.26.09-1.57.77-1.22.68-2.09.68-1.92 0-3.31-.76-1.39-.76-2.35-2.04-.87-1.27-1.31-2.89-.44-1.7-.44-3.49-.52-.25-.52-.93 0-.59.43-1.02 0-1.02.083-2.04.09-1.1.435-2.21.52-1.78 1.39-4.25.955-2.47 2.35-4.68 1.39-2.29 3.3-3.82 1.91-1.62 4.345-1.62 2.43 0 3.3 1.62.87 1.53.87 3.57 0 1.19-.26 2.38-.172 1.11-.61 1.79zm-4.173-3.572q-.87.68-1.74 2.04-.87 1.275-1.57 2.807-.7 1.53-1.31 3.146-.61 1.62-.96 2.98 1.04-.93 2.61-3.57.35-.59.87-1.44.52-.93.95-1.95.43-1.1.78-2.12.35-1.02.35-1.87zm11.22-2.38q.08-.597.52-.852.43-.34.87-.34 1.13 0 1.39 1.275l-.18 2.81q-.09 1.36-.18 2.81.69-1.02 1.56-2.12.95-1.19 2.08-2.12 1.13-1.02 2.52-1.61 1.39-.59 3.13-.59 3.13 0 5.21 2.05 2.08 2.04 2.08 6.13 0 2.13-.61 4.17t-1.74 4q2.43-.68 4.52-1.36 2.17-.68 2.87-.68.69 0 1.04.43.35.34.35.85 0 .6-1.13 1.19-1.05.6-2.79 1.28t-4 1.53q-2.26.77-4.7 1.7-2.35 2.21-5.21 3.66-2.78 1.36-5.74 1.53-.18.26-.18.68L71.99 58.4q-.87 1.7-2.52 1.7-.785 0-1.48-.596-.696-.595-.87-1.616h-.086v-.343q.87-10.374 2.61-20.493 1.737-10.118 2.78-20.407zm3.39 18.197q-.18.425-.26 1.02-.09.595-.26 1.274 2.17-1.02 4.95-2.04 2.61-2.22 4.43-5.02 1.82-2.89 1.82-5.36 0-1.62-.7-2.55-.61-.94-1.74-.94-1.48 0-2.78 1.53-1.31 1.45-2.35 3.57t-1.83 4.5q-.78 2.29-1.31 3.99z"/><path d="M96.907 31.432q-.522.68-1.217.68-.61 0-1.044-.424-.347-.425-.347-1.106v-.425q1.04-2.296 2.78-4.762 1.74-2.55 3.56-4.847 1.82-2.296 3.39-4.252 1.56-1.956 2.26-3.232 0-.85.95-1.19 1.04-.34 1.39-.34 1.04 0 1.65.68.69.68.69 2.042-1.22 4.25-1.22 8.42 0 2.21.43 4.25.43 2.042 1.04 4.253 2.43-1.2 4.78-2.22 2.43-1.02 4.78-2.04.52-.17.78-.17.69 0 1.04.42.34.42.34.93 0 .59-1.22 1.44t-2.96 1.79q-1.65.85-3.57 1.78-1.91.93-3.31 1.78 0 2.72-.87 4.67-.79 1.87-2.09 3.06-1.21 1.19-2.69 1.7t-2.78.51q-2 0-3.31-1.11-1.3-1.02-1.3-2.72 0-1.03.784-2.13.87-1.11 2-2.13 1.22-1.02 2.35-1.79 1.22-.77 2-1.19-.52-3.06-.956-5.78-.44-2.72-.44-5.36-2.087 2.04-4.174 4.17-2.08 2.12-3.56 4.59z"/></g>
  <style type="text/css">
  <![CDATA[
  path {fill: white;}
  ]]></style></svg>