
<?xml version="1.0" encoding="UTF-8" standalone="no"?>
<svg
   xmlns:dc="http://purl.org/dc/elements/1.1/"
   xmlns:cc="http://creativecommons.org/ns#"
   xmlns:rdf="http://www.w3.org/1999/02/22-rdf-syntax-ns#"
   xmlns:svg="http://www.w3.org/2000/svg"
   xmlns="http://www.w3.org/2000/svg"
   xmlns:sodipodi="http://sodipodi.sourceforge.net/DTD/sodipodi-0.dtd"
   xmlns:inkscape="http://www.inkscape.org/namespaces/inkscape"
   version="1.0"
   width="729.53137pt"
   height="116.87118pt"
   viewBox="0 0 729.53137 116.87118"
   preserveAspectRatio="xMidYMid meet"
   id="svg3336"
   inkscape:version="0.91 r13725"
   sodipodi:docname="el2.svg">
  <defs
     id="defs3352" />
  <sodipodi:namedview
     pagecolor="#ffffff"
     bordercolor="#666666"
     borderopacity="1"
     objecttolerance="10"
     gridtolerance="10"
     guidetolerance="10"
     inkscape:pageopacity="0"
     inkscape:pageshadow="2"
     inkscape:window-width="1218"
     inkscape:window-height="697"
     id="namedview3350"
     showgrid="true"
     showguides="false"
     borderlayer="true"
     inkscape:zoom="0.9993776"
     inkscape:cx="499.75919"
     inkscape:cy="67.841722"
     inkscape:window-x="54"
     inkscape:window-y="-8"
     inkscape:window-maximized="1"
     inkscape:current-layer="svg3336"
     fit-margin-top="0"
     fit-margin-left="0"
     fit-margin-right="0"
     fit-margin-bottom="0">
    <inkscape:grid
       type="xygrid"
       id="grid3354"
       originx="69.353737"
       originy="-327.0883" />
  </sodipodi:namedview>
  <metadata
     id="metadata3338">
Created by potrace 1.13, written by Peter Selinger 2001-2015
<rdf:RDF>
  <cc:Work
     rdf:about="">
    <dc:format>image/svg+xml</dc:format>
    <dc:type
       rdf:resource="http://purl.org/dc/dcmitype/StillImage" />
    <dc:title></dc:title>
  </cc:Work>
</rdf:RDF>
</metadata>
  <g
     transform="matrix(0.1,0,0,-0.1,163.81253,199.00703)"
     id="g3340"
     style="fill:#000000;stroke:none">
    <path
       d="m 1033,1970 c -52,-23 -53,-32 -23,-195 18,-100 31,-137 98,-274 31,-62 131,-164 195,-199 66,-36 94,-36 132,-3 63,57 177,44 236,-26 34,-40 89,-80 122,-88 33,-9 35,5 7,60 -11,22 -20,48 -20,58 0,29 39,12 75,-31 61,-74 132,-147 204,-209 74,-63 75,-63 94,-44 24,24 26,104 3,149 -9,17 -40,52 -70,77 -30,26 -61,63 -70,83 -17,40 -35,135 -43,222 -6,74 -19,114 -60,182 -42,71 -110,129 -199,169 -55,25 -87,32 -161,36 -51,3 -93,3 -93,-2 0,-4 14,-20 31,-36 41,-38 30,-50 -12,-15 -41,35 -110,70 -178,90 -78,23 -214,21 -268,-4 z m 789,-367 c 10,-9 18,-21 18,-27 0,-6 -5,-5 -12,2 -7,7 -34,12 -61,12 -43,0 -48,2 -37,15 17,20 69,19 92,-2 z"
       id="path3342"
       inkscape:connector-curvature="0" />
    <path
       d="m 2690,1967 c -36,-12 -93,-41 -128,-65 -63,-43 -82,-44 -37,-2 14,13 25,27 25,32 0,4 -31,8 -69,8 -175,0 -343,-107 -409,-260 -27,-64 -55,-275 -42,-321 11,-38 72,-109 94,-109 7,0 25,13 40,29 59,61 93,42 57,-32 -23,-48 -26,-67 -11,-67 24,0 87,41 125,80 22,23 51,47 65,54 64,33 139,26 192,-19 25,-21 38,-25 62,-21 46,9 121,62 177,125 103,114 195,363 187,505 -3,45 -6,53 -33,66 -51,25 -216,24 -295,-3 z"
       id="path3344"
       inkscape:connector-curvature="0"
       sodipodi:nodetypes="cccssccsccscccccccc" />
    <path
       d="m 1873,1178 c -4,-7 -7,-38 -7,-68 2,-117 92,-223 231,-271 72,-24 83,-24 83,3 0,12 10,32 21,45 26,26 19,40 -40,75 -52,32 -182,140 -223,187 -37,43 -52,49 -65,29 z"
       id="path3346"
       inkscape:connector-curvature="0" />
    <path
       d="m 1828,941 -33,-29 23,-24 c 12,-14 22,-32 22,-41 0,-26 23,-30 66,-12 69,29 70,33 17,87 -26,26 -51,48 -55,48 -4,0 -22,-13 -40,-29 z"
       id="path3348"
       inkscape:connector-curvature="0" />
  </g>
  <path
     style="fill:#000000"
     d="m 373.38573,95.315263 c -6.82563,-5.5255 -11.85635,-10.35095 -19.24537,-18.46009 -7.5433,-8.27847 -10.06364,-10.3563 -11.76837,-9.70213 -1.3332,0.51159 -1.08517,2.1332 1.09622,7.16692 2.29445,5.29462 2.40056,6.0704 0.83025,6.0704 -2.26729,0 -6.83295,-2.91471 -11.60145,-7.40635 -9.33424,-8.79229 -16.61197,-9.9853 -25.46038,-4.17365 -4.29109,2.8184 -5.29378,2.97873 -9.24338,1.478 -5.7476,-2.18391 -14.42133,-9.45939 -19.85092,-16.65082 -2.60856,-3.45502 -6.6644,-11.44319 -9.42875,-18.57039 -3.0221,-7.79172 -6.17215,-25.5700898 -5.19725,-29.3323598 1.02051,-3.93825 10.53237,-6.08755004 22.47261,-5.07792004 8.68685,0.73454004 17.03559,3.95350004 24.64835,9.50348984 2.16631,1.57933 4.13525,2.87151 4.3754,2.87151 1.14322,0 0.19243,-2.00771 -2.12314,-4.4832398 -3.17692,-3.39638 -2.99784,-3.47326 6.59582,-2.83151 7.82401,0.52337 11.38555,1.42255 17.18945,4.3398198 14.84375,7.46105 22.85292,18.97389 24.31796,34.95606 0.5927,6.46575 2.48652,16.43311 3.77833,19.88581 0.98068,2.6211 2.43099,4.49377 7.79377,10.0635 7.28414,7.56523 7.97944,8.88267 7.97793,15.11636 -8e-4,3.93573 -1.32207,7.45006 -2.9118,7.74582 -0.51235,0.0953 -2.42272,-1.03383 -4.24528,-2.50923 z"
     id="path3358"
     inkscape:connector-curvature="0"
     sodipodi:nodetypes="sssssssssssssssssssscss" />
  <flowRoot
     xml:space="preserve"
     id="flowRoot3351"
     style="font-style:normal;font-variant:normal;font-weight:normal;font-stretch:normal;font-size:40px;line-height:125%;font-family:'Vintage Decorative Signs 4';-inkscape-font-specification:'Vintage Decorative Signs 4, ';letter-spacing:0px;word-spacing:0px;fill:#000000;fill-opacity:1;stroke:none;stroke-width:1px;stroke-linecap:butt;stroke-linejoin:miter;stroke-opacity:1"
     transform="matrix(0.8,0,0,0.8,168.36208,244.95245)"><flowRegion
       id="flowRegion3353"><rect
         id="rect3355"
         width="20"
         height="100"
         x="-323.76044"
         y="28.758778"
         style="font-style:normal;font-variant:normal;font-weight:normal;font-stretch:normal;font-family:'Vintage Decorative Signs 4';-inkscape-font-specification:'Vintage Decorative Signs 4, '" /></flowRegion><flowPara
       id="flowPara3357"></flowPara></flowRoot>  <g
     transform="scale(0.50400172,1.9841202)"
     style="font-style:normal;font-weight:normal;font-size:47.42778397px;line-height:125%;font-family:sans-serif;letter-spacing:0px;word-spacing:0px;fill:#000000;fill-opacity:1;stroke:none;stroke-width:1px;stroke-linecap:butt;stroke-linejoin:miter;stroke-opacity:1"
     id="text3359">
    <path
       d="m 7.920069,18.695217 0.4168458,0 q 1.1463258,0 5.8358402,3.334766 l 2.084229,0 q 0,1.354748 -5.002149,1.667383 Q 6.6695318,22.863674 6.6695318,20.3626 7.2948004,18.695217 7.920069,18.695217 Z m 12.088526,0 0.416846,0 q 1.042115,0 5.835841,3.334766 4.064246,1.667383 7.920069,1.667383 l 223.846159,0 q 6.14848,0 12.50537,-5.002149 l 0.8337,0 0,0.416846 q -1.35475,5.002148 -7.50323,5.002148 l 0,0.416846 q 5.83584,0 7.92007,5.002149 l -0.41684,0.416846 -0.8337,0 q -6.35689,-5.002149 -11.25483,-5.002149 l -227.180928,0 q -4.168457,0 -11.671681,5.418995 L 20.008595,29.11636 q 0,-2.396863 6.669532,-4.585303 l 0.416846,0.416846 0.833692,0 0,-0.833692 q -7.92007,-1.250537 -7.92007,-5.418994 z m 262.195975,0 1.66738,0 q 0.9379,0 1.25054,2.084229 -1.25054,2.91792 -5.83584,2.91792 -3.75162,-0.416846 -3.75162,-1.667383 3.43898,0 6.66954,-3.334766 z M 2.9179202,22.029983 q 3.0221316,0 7.9200688,2.91792 l 2.501075,0 q 2.709497,-2.292652 6.669531,-2.501074 l 1.667383,1.667382 0,0.416846 q -0.208422,0.833692 -2.084228,1.667383 l -2.501075,-0.416846 q -3.855823,0.625269 -8.3369145,4.585304 -2.0842287,-0.72948 -2.0842287,-2.501075 0.8336915,-2.501074 3.3347662,-2.501074 l 0,-0.416846 -0.8336917,0 -5.8358404,1.667383 Q 0,26.094229 0,24.947903 l 0,-1.250537 q 0.72948004,-1.667383 2.9179202,-1.667383 z m 285.9561798,0 q 2.91792,0.521057 2.91792,1.667383 0,2.91792 -3.33477,2.91792 l -7.08638,-1.667383 0,-0.833692 7.50323,-2.084228 z m -17.09068,0.416846 q 1.87581,0 7.50323,2.501074 5.31478,0 5.83584,3.334766 l -1.66739,2.084229 q -6.04426,-4.168458 -7.50322,-4.168458 l 0,-0.416846 1.66738,-0.416845 0,-0.416846 -1.66738,0 0,0.833691 -0.41685,-0.416845 -3.33476,0.833691 q -2.08423,-0.521057 -2.08423,-1.250537 l 0,-0.833692 1.66738,-1.667382 z M 2.5010744,23.28052 1.667383,24.531057 l 0.8336914,0.833692 2.9179202,-0.416846 1.667383,0 0,-0.833692 -4.5853032,-0.833691 z m 282.2045656,0.833691 0,0.833692 0.41685,0 4.16845,0.416846 0.41685,-0.416846 0,-0.833692 -0.83369,-0.833691 -4.16846,0.833691 z m -268.03181,0.833692 2.91792,0 0.833691,-0.833692 -0.416846,-0.416845 -0.833691,0 q -2.501074,0.208423 -2.501074,1.250537 z m 254.69275,-0.416846 0.41684,0.416846 3.33477,0 0,-0.833692 -2.91792,-0.416845 -0.83369,0.833691 z m -257.193825,0.416846 0,0.416846 1.667383,0.416845 0.416846,-0.416845 0,-0.833692 -2.084229,0.416846 z"
       style="font-style:normal;font-variant:normal;font-weight:normal;font-stretch:normal;font-size:213.42501831px;font-family:'Vintage Decorative Signs 4';-inkscape-font-specification:'Vintage Decorative Signs 4, '"
       id="path5156" />
  </g>
  <text
     xml:space="preserve"
     style="font-style:normal;font-weight:normal;font-size:32px;line-height:125%;font-family:sans-serif;letter-spacing:0px;word-spacing:0px;fill:#000000;fill-opacity:1;stroke:none;stroke-width:1px;stroke-linecap:butt;stroke-linejoin:miter;stroke-opacity:1"
     x="549.3537"
     y="203.95947"
     id="text3363"
     sodipodi:linespacing="125%"><tspan
       sodipodi:role="line"
       id="tspan3365"
       x="549.3537"
       y="203.95947"></tspan></text>
  <path
     style="font-style:normal;font-weight:normal;font-size:36.26585007px;line-height:125%;font-family:sans-serif;letter-spacing:0px;word-spacing:0px;fill:#000000;fill-opacity:1;stroke:none;stroke-width:1px;stroke-linecap:butt;stroke-linejoin:miter;stroke-opacity:1"
     d="m 164.03186,27.427723 -3.18438,0.63906 c -5.096,2.28607 -7.64531,6.3254 -7.64531,12.12031 0,2.44556 0.74336,5.63617 2.22969,9.57031 1.911,2.55195 2.86719,4.2525 2.86719,5.10313 1.911,5.84807 5.09568,10.10116 9.55468,12.75937 5.36142,2.33923 10.03282,3.50938 14.01407,3.50938 2.38875,0 5.67985,-0.53203 9.87343,-1.59531 5.52067,-1.11645 15.81965,-6.32594 30.89532,-15.62969 l 12.73906,-8.93125 c 7.48475,-4.89112 13.74927,-7.3375 18.79219,-7.3375 l 2.22968,0 c 4.459,0.7443 6.68751,3.19069 6.68751,7.3375 l 0,0.6375 c 0,3.18985 -2.12365,5.3164 -6.37031,6.37969 -3.18502,-0.7443 -4.77657,-1.59461 -4.77657,-2.55156 l 0,-0.63907 c 1.274,-0.31898 2.01735,-0.84945 2.22969,-1.59375 l 0,-0.63906 -1.275,-1.275 c -0.79625,0 -1.64446,0.42437 -2.54688,1.275 0,0.85063 -0.21283,1.27656 -0.6375,1.27656 0.74317,4.25311 2.7604,6.37969 6.05157,6.37969 l 1.59218,0 c 2.27501,0 4.60391,-1.90376 6.98438,-5.70625 0.0113,-0.0661 0.0405,-0.13958 0.11093,-0.22032 l 0.002,0 c 0.0551,-0.0632 0.10436,-0.13648 0.16564,-0.19687 0.005,-0.0353 0.0178,-0.0686 0.0266,-0.10313 0.0168,-0.0658 0.0317,-0.0953 0.0609,-0.13437 0.002,-0.0151 0.004,-0.0302 0.006,-0.0453 0.003,-0.0142 0.007,-0.0279 0.009,-0.0422 0.002,-0.0112 0.003,-0.0231 0.003,-0.0344 2.1e-4,-0.005 -0.004,-0.01 -0.002,-0.0141 0.0274,-0.0411 0.057,-0.0803 0.0859,-0.12031 0.005,-0.0561 0.003,-0.0892 0.0234,-0.14844 -0.0129,-0.0426 -0.0115,-0.0896 -0.0125,-0.13437 -0.0369,-0.0625 0.0489,-0.1176 0.0516,-0.17969 1.6e-4,-0.004 3.2e-4,-0.007 -0.002,-0.0109 -5.2e-4,-8.2e-4 -0.005,0.001 -0.005,0 0.007,-0.0357 0.0168,-0.0708 0.025,-0.10626 -0.002,0.003 -0.001,0.003 -0.003,0.006 0.003,-0.009 0.009,-0.0359 0.008,-0.0266 -0.001,0.007 -0.003,0.0135 -0.005,0.0203 0.0494,-0.0945 0.063,-0.10707 0.0906,-0.18593 0.027,-0.0706 -0.004,-0.008 -0.003,-0.0125 0.007,-0.0342 0.0163,-0.0677 0.025,-0.10157 l 0,-0.002 c 0.0273,-0.0415 0.0548,-0.0824 0.0828,-0.12344 -0.0199,-0.0928 0.004,-0.19381 0.0406,-0.275 -0.005,0.002 -0.0151,0.008 -0.0125,-0.008 0.0177,-0.10236 0.0335,-0.14375 0.0594,-0.18593 0.002,-0.12399 0.003,-0.24785 0.005,-0.37188 -0.0119,-0.287 -0.0805,-0.5708 -0.0859,-0.85781 -0.003,-0.14997 0.0159,-0.29626 0.0344,-0.44219 -0.006,-0.0144 -0.0113,-0.0231 -0.0172,-0.0344 -0.0409,-0.15019 -0.0473,-0.15089 -0.0375,-0.28906 5.6e-4,-0.0101 0.002,-0.0196 0.003,-0.0297 -0.0386,-0.0998 -0.0447,-0.17616 -0.0406,-0.29062 0.0253,-0.13849 0.0131,-0.0766 0.009,-0.0266 -4.6e-4,0.006 0.002,-0.0128 0.002,-0.0188 -0.005,-0.0685 -0.0136,-0.12436 -0.0234,-0.19374 -0.009,-0.0633 -0.01,-0.12019 -0.003,-0.17032 -0.10445,-0.0856 -0.13502,-0.14432 -0.16564,-0.23437 -0.0379,-0.0436 -0.0554,-0.0828 -0.0953,-0.20625 -0.002,-0.006 -9e-5,-0.0393 0.009,-0.0375 -0.007,-0.0206 -0.018,-0.0417 -0.0234,-0.0625 -0.0194,-0.0308 -0.041,-0.0608 -0.0562,-0.0937 -0.0235,-0.051 -0.0226,-0.11533 -0.025,-0.17344 -0.049,-0.0308 -0.0675,-0.0399 -0.0766,-0.10625 -0.006,-0.0224 -0.0164,-0.0442 -0.0203,-0.0672 -0.005,-0.0283 -0.007,-0.0573 -0.009,-0.0859 -0.0299,-0.0317 -0.0582,-0.0662 -0.0875,-0.0984 0.004,0.008 0.008,0.0156 0.0125,0.0234 -0.009,-0.014 -0.04,-0.0542 -0.0281,-0.0422 0.006,0.006 0.0102,0.0128 0.0156,0.0188 -0.0163,-0.0321 -0.0322,-0.0648 -0.0484,-0.0969 -0.004,-0.003 -0.008,-0.005 -0.0109,-0.008 l -0.002,-0.002 c -0.008,-0.006 -0.0245,-0.016 -0.0281,-0.0187 -0.0807,-0.11131 -0.0955,-0.16504 -0.14219,-0.26719 l -0.002,-0.002 c -0.003,-0.007 -0.006,-0.0111 -0.009,-0.0187 -0.004,-0.008 0.0119,0.0312 0.006,0.025 -0.0117,-0.0126 -0.0166,-0.0303 -0.025,-0.0453 -0.005,-0.0199 -0.0187,-0.0552 -0.0297,-0.0844 -0.32582,-0.17382 -0.68902,-0.78785 -1.08905,-1.85625 -2.07026,-2.76454 -4.618,-4.14688 -7.64376,-4.14688 l -1.59219,0 c -6.47616,0 -16.45589,4.25309 -29.93906,12.75938 -14.17325,8.93163 -21.92291,13.39844 -23.25,13.39844 -4.459,2.81771 -11.36046,4.83659 -20.70312,6.05938 l -2.54844,0 c -2.548,-0.10633 -3.82188,-0.42461 -3.82188,-0.95626 -3.87508,0 -7.6967,-2.87075 -11.46562,-8.6125 l 0,-0.31875 0.95469,-0.31875 0.6375,0.6375 c 4.19358,2.55189 8.65214,3.82813 13.37656,3.82813 7.75016,0 18.47325,-4.35918 32.16875,-13.07813 10.13891,-6.85819 18.42067,-10.58081 24.84375,-11.16562 l 4.45938,0.63906 1.27344,0 0.31874,-0.32031 c -1.43325,-1.27594 -3.981,-1.9125 -7.64375,-1.9125 -7.06008,0 -15.44825,2.97685 -25.1625,8.93125 -12.95233,9.14431 -23.14333,13.71562 -30.575,13.71562 l -4.45937,-0.31874 c -8.06867,-2.55189 -12.10313,-4.99676 -12.10313,-7.33594 l 0.6375,-0.63906 3.82188,3.50937 c 5.096,2.33923 9.02404,3.50937 11.78437,3.50937 4.19358,0 9.71319,-1.70217 16.56094,-5.10468 12.52766,-8.02782 21.65919,-13.2373 27.39219,-15.62969 5.46758,-1.11645 8.2266,-1.86066 8.27968,-2.23281 l -1.59218,-0.31876 -2.86563,0 c -6.79466,0.79747 -15.3941,4.73072 -25.79844,11.80157 -8.59949,5.52904 -15.39454,8.29375 -20.38437,8.29375 l -3.18438,0 c -2.33566,0 -5.30908,-0.8503 -8.91875,-2.55156 -3.60966,-2.55189 -5.41406,-4.36016 -5.41406,-5.42344 0.74317,-2.87088 2.22831,-5.63553 4.45781,-8.29375 3.92817,-3.18986 7.11442,-4.78437 9.55625,-4.78437 l 5.09532,0 c 5.733,1.70125 8.6,4.46592 8.6,8.29375 l 0,1.91405 c -1.911,4.04049 -4.24748,6.06096 -7.00782,6.06094 l -1.59218,0 -2.54844,-0.95781 -0.63594,0.63907 c 0.84933,1.06328 1.80396,1.59375 2.86563,1.59375 l 4.77812,0 c 4.24667,-1.75443 6.37031,-4.62519 6.37031,-8.61251 0,-2.9772 -1.59312,-5.95404 -4.77812,-8.93124 -2.65417,-1.4886 -5.0955,-2.23282 -7.325,-2.23282 l -2.86719,0 c -1.911,0 -4.56517,0.74422 -7.9625,2.23282 -3.87508,2.39239 -6.74052,5.68908 -8.59844,9.88906 -0.42466,0 -0.6375,-0.42594 -0.6375,-1.27657 l -0.95625,0 0,1.91407 c 0.637,0.79746 0.95625,1.54168 0.95625,2.23281 l 0,1.91406 -0.31875,0.31875 -0.31875,0 -0.31875,-0.31875 c -1.06166,-1.43543 -1.80502,-3.98634 -2.22968,-7.65469 l 0.6375,-4.46718 c 1.274,-2.76455 2.23018,-4.14688 2.86718,-4.14688 0,-1.22278 2.44134,-2.28527 7.325,-3.18906 l 2.86719,0.6375 0.31719,0 -0.31719,-0.31875 0.31719,-0.31875 c -0.26542,-0.85063 -1.22004,-1.27656 -2.86563,-1.27656 l -2.22968,0 z m 103.5125,4.05781 c 0.0355,0.10723 0.065,0.21725 0.0875,0.33125 4.1e-4,-0.0838 0.005,-0.1645 0.005,-0.24844 -0.0302,-0.0282 -0.0622,-0.0545 -0.0922,-0.0828 z m -6.825,0.34844 c -0.0245,0.0118 -0.0502,0.0188 -0.075,0.0297 0.001,0.009 0.007,0.0478 0.008,0.0516 0.002,0.0108 0.007,0.0292 0.009,0.0437 0.0109,-0.0245 0.0257,-0.0556 0.0375,-0.0812 l -0.002,-0.002 c 0.002,-0.003 0.005,-0.004 0.006,-0.008 0.005,-0.0106 0.0106,-0.0235 0.0156,-0.0344 z m 112.52969,0.0672 c 0.0106,0.0535 0.0172,0.11743 0.0266,0.17344 0.10104,0.0919 0.20009,0.18342 0.30156,0.275 -0.1081,-0.15325 -0.21764,-0.30235 -0.32812,-0.44844 z m -112.97657,3.25782 c 0.0302,0.0202 0.0662,0.0407 0.0969,0.0609 0.005,-0.0125 0.009,-0.0251 0.0141,-0.0375 -0.0437,-0.01 -0.0651,-0.013 -0.11093,-0.0234 z m 10.28438,1.44687 c -0.0471,-6.2e-4 0.0821,0.0495 0.12813,0.0594 0.0596,0.0128 0.12023,0.0256 0.18125,0.0328 -0.0281,-0.0109 -0.0562,-0.022 -0.0844,-0.0328 -0.075,-0.0202 -0.14729,-0.0584 -0.225,-0.0594 z m -5.78282,5.02813 c -0.004,0.007 -0.008,0.0135 -0.0125,0.0203 0.0123,0.0141 0.0238,0.0302 0.0359,0.0453 -0.001,-0.006 -0.003,-0.0116 -0.005,-0.0172 -0.0656,-0.25576 -0.0282,-0.10678 -0.006,-0.036 -0.004,-0.004 -0.008,-0.008 -0.0125,-0.0125 z m -0.575,0.10625 c 0.008,0.0347 0.0133,0.0717 0.0375,0.0953 0.0154,0.0151 0.0388,0.0343 0.0609,0.0516 9.9e-4,-7.2e-4 0.004,0.003 0.005,0.002 0.0136,-0.0351 0.0131,-0.076 0.0187,-0.11407 -0.0402,-0.005 -0.0805,-0.0151 -0.12188,-0.0344 z m 0.65626,1.44062 c 0.0184,0.0397 0.0409,0.0828 0.0469,0.0516 -0.0267,-0.0228 -0.0324,-0.036 -0.0469,-0.0516 z m 0.30469,1.02813 c -0.007,0.01 -0.0197,0.0337 -0.0156,0.0625 0.004,-0.0211 0.0114,-0.0414 0.0156,-0.0625 z m 0.006,2.26249 c 0.006,-0.0118 -0.0255,0.0101 -0.0359,0.0188 -0.0134,0.011 -0.0215,0.0259 -0.0328,0.0391 -0.0315,0.0893 -0.0137,0.0306 0.0188,0.0172 0.0164,-0.0252 0.0354,-0.0487 0.05,-0.075 z m -0.29375,1.03751 c -0.007,0.005 -0.0152,0.008 -0.0203,0.0141 -0.008,0.0106 -0.0101,0.0251 -0.0156,0.0375 0.0124,-0.017 0.0236,-0.0345 0.0359,-0.0516 z m -0.17656,0.39375 -0.002,0.002 c -0.002,0.0213 -0.011,0.0853 -0.008,0.0641 0.003,-0.0218 0.006,-0.0438 0.009,-0.0656 z m 0.28749,0.55156 c -0.01,0.006 -0.0221,0.0152 -0.0375,0.0266 l 0.0234,0 c 0.005,-0.005 0.004,-0.006 0.009,-0.0125 0.002,-0.006 0.003,-0.008 0.005,-0.0141 z m -0.006,0.0203 c -0.002,0.002 -0.003,0.004 -0.005,0.006 l 0.003,0 c 8.1e-4,-0.003 7.6e-4,-0.004 0.002,-0.006 z m 103.24063,0.55469 c -0.0194,0.004 -0.0436,0.004 -0.0625,0.008 -0.0937,0.0211 -0.13247,0.0364 -0.27813,0.075 5.3e-4,10e-4 0.001,0.002 0.002,0.003 0.1179,-0.0289 0.2299,-0.0577 0.33907,-0.0859 z m -99.71875,1.73594 c -0.003,0.008 -0.005,0.0168 -0.008,0.025 0.0382,0.0165 0.0492,0.0142 0.0531,0.008 9.1e-4,-0.002 0.002,-0.004 0.003,-0.006 -0.014,-0.0117 -0.0328,-0.0171 -0.0484,-0.0266 z m 72.10156,16.325 c -0.31051,0.10216 -0.69708,0.22519 -0.91562,0.30468 -0.25272,0.0919 0.53426,-0.10678 0.77656,-0.22343 0.0485,-0.0233 0.0919,-0.0556 0.13906,-0.0813 z"
     id="text3389"
     inkscape:connector-curvature="0" />
  <path
     style="font-style:normal;font-weight:normal;font-size:36.26585007px;line-height:125%;font-family:sans-serif;letter-spacing:0px;word-spacing:0px;fill:#000000;fill-opacity:1;stroke:none;stroke-width:1px;stroke-linecap:butt;stroke-linejoin:miter;stroke-opacity:1"
     d="m 565.49956,27.759303 3.18438,0.63906 c 5.09599,2.28607 7.64531,6.3254 7.64531,12.12031 0,2.44556 -0.74336,5.63617 -2.22969,9.57031 -1.911,2.55195 -2.86719,4.2525 -2.86719,5.10313 -1.911,5.84807 -5.09569,10.10116 -9.55469,12.75937 -5.36141,2.33923 -10.0328,3.50938 -14.01405,3.50938 -2.38875,0 -5.67986,-0.53203 -9.87344,-1.59531 -5.52067,-1.11645 -15.81965,-6.32594 -30.89531,-15.62969 l -12.73907,-8.93125 c -7.48474,-4.89112 -13.74927,-7.3375 -18.79218,-7.3375 l -2.22969,0 c -4.459,0.7443 -6.6875,3.19069 -6.6875,7.3375 l 0,0.6375 c 0,3.18985 2.12364,5.3164 6.37031,6.37969 3.18501,-0.7443 4.77657,-1.59461 4.77657,-2.55156 l 0,-0.63907 c -1.274,-0.31898 -2.01736,-0.84945 -2.22969,-1.59375 l 0,-0.63906 1.275,-1.275 c 0.79625,0 1.64445,0.42437 2.54687,1.275 0,0.85063 0.21283,1.27656 0.6375,1.27656 -0.74316,4.25311 -2.7604,6.37969 -6.05156,6.37969 l -1.59219,0 c -2.27501,0 -4.6039,-1.90376 -6.98437,-5.70625 -0.0113,-0.0661 -0.0405,-0.13958 -0.11094,-0.22032 l -0.002,0 c -0.0551,-0.0632 -0.10435,-0.13648 -0.16563,-0.19687 -0.005,-0.0353 -0.0178,-0.0686 -0.0266,-0.10313 -0.0168,-0.0658 -0.0318,-0.0953 -0.061,-0.13437 -0.002,-0.0151 -0.004,-0.0302 -0.006,-0.0453 -0.003,-0.0142 -0.007,-0.0279 -0.009,-0.0422 -0.002,-0.0112 -0.003,-0.0231 -0.003,-0.0344 -2.2e-4,-0.005 0.004,-0.01 0.002,-0.0141 -0.0274,-0.0411 -0.057,-0.0803 -0.0859,-0.12031 -0.006,-0.0561 -0.003,-0.0892 -0.0234,-0.14844 0.0129,-0.0426 0.0114,-0.0896 0.0125,-0.13437 0.0369,-0.0625 -0.0489,-0.1176 -0.0515,-0.17969 -1.6e-4,-0.004 -3.2e-4,-0.007 0.002,-0.0109 5.2e-4,-8e-4 0.005,9.6e-4 0.005,0 -0.007,-0.0357 -0.0168,-0.0708 -0.025,-0.10626 0.002,0.003 0.002,0.003 0.003,0.006 -0.003,-0.009 -0.009,-0.0359 -0.008,-0.0266 0.002,0.007 0.003,0.0135 0.005,0.0203 -0.0494,-0.0945 -0.063,-0.10707 -0.0906,-0.18593 -0.027,-0.0706 0.004,-0.008 0.003,-0.0125 -0.007,-0.0342 -0.0163,-0.0677 -0.025,-0.10157 l 0,-0.002 c -0.0273,-0.0415 -0.0547,-0.0824 -0.0828,-0.12344 0.0199,-0.0928 -0.004,-0.19381 -0.0406,-0.275 0.005,0.002 0.0151,0.008 0.0125,-0.008 -0.0177,-0.10236 -0.0335,-0.14375 -0.0594,-0.18593 -0.002,-0.12399 -0.003,-0.24785 -0.005,-0.37188 0.0119,-0.287 0.0805,-0.5708 0.086,-0.85781 0.003,-0.14997 -0.0158,-0.29626 -0.0344,-0.44219 0.006,-0.0144 0.0113,-0.0231 0.0172,-0.0344 0.0409,-0.15019 0.0473,-0.15089 0.0375,-0.28906 -5.6e-4,-0.0101 -0.002,-0.0196 -0.003,-0.0297 0.0386,-0.0998 0.0447,-0.17616 0.0406,-0.29062 -0.0253,-0.13849 -0.0131,-0.0766 -0.009,-0.0266 4.5e-4,0.006 -0.002,-0.0128 -0.002,-0.0188 0.005,-0.0685 0.0136,-0.12436 0.0234,-0.19374 0.009,-0.0633 0.01,-0.12019 0.003,-0.17032 0.10444,-0.0856 0.13501,-0.14432 0.16563,-0.23437 0.0379,-0.0436 0.0554,-0.0828 0.0953,-0.20625 0.002,-0.006 10e-5,-0.0393 -0.009,-0.0375 0.007,-0.0206 0.018,-0.0417 0.0234,-0.0625 0.0194,-0.0308 0.041,-0.0608 0.0562,-0.0937 0.0235,-0.051 0.0226,-0.11533 0.025,-0.17344 0.049,-0.0308 0.0674,-0.0399 0.0766,-0.10625 0.006,-0.0224 0.0164,-0.0442 0.0203,-0.0672 0.005,-0.0283 0.007,-0.0573 0.009,-0.0859 0.0299,-0.0317 0.0582,-0.0662 0.0875,-0.0984 -0.004,0.008 -0.008,0.0156 -0.0125,0.0234 0.009,-0.014 0.04,-0.0542 0.0282,-0.0422 -0.006,0.006 -0.0102,0.0128 -0.0156,0.0188 0.0163,-0.0321 0.0322,-0.0648 0.0485,-0.0969 0.004,-0.003 0.008,-0.005 0.011,-0.008 l 0.002,-0.002 c 0.008,-0.006 0.0245,-0.016 0.0281,-0.0187 0.0807,-0.11131 0.0955,-0.16504 0.14219,-0.26719 l 0.002,-0.002 c 0.003,-0.007 0.006,-0.0111 0.009,-0.0187 0.004,-0.008 -0.0119,0.0312 -0.006,0.025 0.0117,-0.0126 0.0166,-0.0303 0.025,-0.0453 0.005,-0.0199 0.0187,-0.0552 0.0297,-0.0844 0.32582,-0.17382 0.68902,-0.78785 1.08905,-1.85625 2.07026,-2.76454 4.618,-4.14688 7.64376,-4.14688 l 1.59219,0 c 6.47616,0 16.45589,4.25309 29.93905,12.75938 14.17325,8.93163 21.92292,13.39844 23.25,13.39844 4.459,2.81771 11.36047,4.83659 20.70313,6.05938 l 2.54843,0 c 2.548,-0.10633 3.82188,-0.42461 3.82188,-0.95626 3.87508,0 7.69671,-2.87075 11.46563,-8.6125 l 0,-0.31875 -0.95469,-0.31875 -0.6375,0.6375 c -4.19358,2.55189 -8.65215,3.82813 -13.37656,3.82813 -7.75017,0 -18.47325,-4.35918 -32.16876,-13.07813 -10.13891,-6.85819 -18.42066,-10.58081 -24.84374,-11.16562 l -4.45938,0.63906 -1.27344,0 -0.31874,-0.32031 c 1.43325,-1.27594 3.981,-1.9125 7.64374,-1.9125 7.06008,0 15.44825,2.97685 25.16251,8.93125 12.95053,9.14431 23.14153,13.71562 30.5732,13.71562 l 4.45937,-0.31874 c 8.06867,-2.55189 12.10313,-4.99676 12.10313,-7.33594 l -0.6375,-0.63906 -3.82188,3.50937 c -5.096,2.33923 -9.02404,3.50937 -11.78437,3.50937 -4.19359,0 -9.71319,-1.70217 -16.56094,-5.10468 -12.52766,-8.02782 -21.65918,-13.2373 -27.39218,-15.62969 -5.46759,-1.11645 -8.22661,-1.86066 -8.27969,-2.23281 l 1.59218,-0.31876 2.86563,0 c 6.79467,0.79747 15.39411,4.73072 25.79844,11.80157 8.59949,5.52904 15.39454,8.29375 20.38437,8.29375 l 3.18438,0 c 2.33566,0 5.30908,-0.8503 8.91875,-2.55156 3.60966,-2.55189 5.41406,-4.36016 5.41406,-5.42344 -0.74316,-2.87088 -2.22831,-5.63553 -4.45781,-8.29375 -3.92817,-3.18986 -7.11442,-4.78437 -9.55625,-4.78437 l -5.09532,0 c -5.73299,1.70125 -8.6,4.46592 -8.6,8.29375 l 0,1.91405 c 1.911,4.04049 4.24748,6.06096 7.00782,6.06094 l 1.59218,0 2.54844,-0.95781 0.63594,0.63907 c -0.84933,1.06328 -1.80396,1.59375 -2.86563,1.59375 l -4.77812,0 c -4.24667,-1.75443 -6.37031,-4.62519 -6.37031,-8.61251 0,-2.9772 1.59312,-5.95404 4.77812,-8.93124 2.65417,-1.4886 5.0955,-2.23282 7.325,-2.23282 l 2.86719,0 c 1.911,0 4.56516,0.74422 7.9625,2.23282 3.87508,2.39239 6.74052,5.68908 8.59844,9.88906 0.42466,0 0.63749,-0.42594 0.63749,-1.27657 l 0.95625,0 0,1.91407 c -0.63699,0.79746 -0.95625,1.54168 -0.95625,2.23281 l 0,1.91406 0.31876,0.31875 0.31875,0 0.31874,-0.31875 c 1.06167,-1.43543 1.80503,-3.98634 2.22969,-7.65469 l -0.6375,-4.46718 c -1.274,-2.76455 -2.23019,-4.14688 -2.86718,-4.14688 0,-1.22278 -2.44134,-2.28527 -7.325,-3.18906 l -2.86719,0.6375 -0.31719,0 0.31719,-0.31875 -0.31719,-0.31875 c 0.26542,-0.85063 1.22004,-1.27656 2.86563,-1.27656 l 2.22969,0 z m -103.51249,4.05781 c -0.0354,0.10723 -0.065,0.21725 -0.0875,0.33125 -4.1e-4,-0.0838 -0.006,-0.1645 -0.005,-0.24844 0.0302,-0.0282 0.0622,-0.0545 0.0922,-0.0828 z m 6.825,0.34844 c 0.0246,0.0118 0.0502,0.0188 0.075,0.0297 -0.002,0.009 -0.007,0.0478 -0.008,0.0516 -0.002,0.0108 -0.006,0.0292 -0.009,0.0437 -0.0109,-0.0245 -0.0257,-0.0556 -0.0375,-0.0812 l 0.002,-0.002 c -0.002,-0.003 -0.005,-0.004 -0.006,-0.008 -0.005,-0.0106 -0.0106,-0.0235 -0.0156,-0.0344 z m -112.5297,0.0672 c -0.0106,0.0535 -0.0172,0.11743 -0.0266,0.17344 -0.10104,0.0919 -0.20009,0.18342 -0.30156,0.275 0.10807,-0.15325 0.2176,-0.30235 0.32808,-0.44844 z m 112.97657,3.25782 c -0.0302,0.0202 -0.0662,0.0407 -0.0969,0.0609 -0.005,-0.0125 -0.009,-0.0251 -0.0141,-0.0375 0.0438,-0.01 0.0651,-0.013 0.11093,-0.0234 z m -10.28438,1.44687 c 0.0471,-6.2e-4 -0.0821,0.0495 -0.12812,0.0594 -0.0596,0.0128 -0.12024,0.0256 -0.18126,0.0328 0.0281,-0.0109 0.0562,-0.022 0.0844,-0.0328 0.075,-0.0202 0.1473,-0.0584 0.225,-0.0594 z m 5.78282,5.02813 c 0.004,0.007 0.008,0.0135 0.0125,0.0203 -0.0123,0.0141 -0.0238,0.0302 -0.0359,0.0453 0.002,-0.006 0.002,-0.0116 0.005,-0.0172 0.0656,-0.25576 0.0282,-0.10678 0.006,-0.036 0.004,-0.004 0.008,-0.008 0.0125,-0.0125 z m 0.575,0.10625 c -0.008,0.0347 -0.0134,0.0717 -0.0375,0.0953 -0.0154,0.0151 -0.0388,0.0343 -0.061,0.0516 -8e-4,-7.2e-4 -0.004,0.003 -0.005,0.002 -0.0137,-0.0351 -0.0131,-0.076 -0.0187,-0.11407 0.0402,-0.005 0.0805,-0.0151 0.12188,-0.0344 z m -0.65626,1.44062 c -0.0184,0.0397 -0.0409,0.0828 -0.0469,0.0516 0.0267,-0.0228 0.0323,-0.036 0.0469,-0.0516 z m -0.30468,1.02813 c 0.007,0.01 0.0197,0.0337 0.0156,0.0625 -0.004,-0.0211 -0.0114,-0.0414 -0.0156,-0.0625 z m -0.006,2.26249 c -0.006,-0.0118 0.0255,0.0101 0.0359,0.0188 0.0134,0.011 0.0215,0.0259 0.0328,0.0391 0.0315,0.0893 0.0137,0.0306 -0.0187,0.0172 -0.0164,-0.0252 -0.0354,-0.0487 -0.05,-0.075 z m 0.29375,1.03751 c 0.006,0.005 0.0152,0.008 0.0203,0.0141 0.008,0.0106 0.0101,0.0251 0.0156,0.0375 -0.0124,-0.017 -0.0236,-0.0345 -0.0359,-0.0516 z m 0.17656,0.39375 0.002,0.002 c 0.002,0.0213 0.011,0.0853 0.008,0.0641 -0.003,-0.0218 -0.006,-0.0438 -0.009,-0.0656 z m -0.2875,0.55156 c 0.01,0.006 0.0221,0.0152 0.0375,0.0266 l -0.0234,0 c -0.005,-0.005 -0.004,-0.006 -0.009,-0.0125 -0.002,-0.006 -0.003,-0.008 -0.005,-0.0141 z m 0.006,0.0203 c 0.002,0.002 0.003,0.004 0.005,0.006 l -0.003,0 c -8e-4,-0.003 -7.6e-4,-0.004 -0.002,-0.006 z m -103.24063,0.55469 c 0.0194,0.004 0.0436,0.004 0.0625,0.008 0.0937,0.0211 0.13247,0.0364 0.27813,0.075 -5.3e-4,9.6e-4 -8e-4,0.002 -0.002,0.003 -0.1179,-0.0289 -0.2299,-0.0577 -0.33907,-0.0859 z m 99.71875,1.73594 c 0.003,0.008 0.005,0.0168 0.008,0.025 -0.0382,0.0165 -0.0492,0.0142 -0.0531,0.008 -8e-4,-0.002 -0.002,-0.004 -0.003,-0.006 0.014,-0.0117 0.0328,-0.0171 0.0484,-0.0266 z m -72.10156,16.325 c 0.31051,0.10216 0.69708,0.22519 0.91563,0.30468 0.25272,0.0919 -0.53427,-0.10678 -0.77656,-0.22343 -0.0485,-0.0233 -0.0919,-0.0556 -0.13907,-0.0813 z"
     id="text3389-8"
     inkscape:connector-curvature="0" />
  <path
     inkscape:connector-curvature="0"
     d="m 586.25154,37.174368 0.21009,0 q 0.57775,0 2.94127,6.616576 l 1.05046,0 q 0,2.687984 -2.52109,3.308288 -2.31101,-1.654144 -2.31101,-6.616576 0.31514,-3.308288 0.63028,-3.308288 z m 6.09264,0 0.21009,0 q 0.52522,0 2.94127,6.616576 2.04839,3.308288 3.99173,3.308288 l 112.81885,0 q 3.09884,0 6.30273,-9.924864 l 0.42018,0 0,0.827072 q -0.6828,9.924864 -3.78164,9.924864 l 0,0.827072 q 2.94128,0 3.99173,9.924866 l -0.21009,0.827072 -0.42018,0 q -3.20389,-9.924865 -5.67246,-9.924865 l -114.49958,0 q -2.10091,0 -5.88254,10.751937 l -0.21009,-2.481217 q 0,-4.755665 3.36145,-9.097793 l 0.21009,0.827073 0.42018,0 0,-1.654145 q -3.99172,-2.481216 -3.99172,-10.751936 z m 132.14722,0 0.84036,0 q 0.47271,0 0.63027,4.135361 -0.63027,5.789503 -2.94127,5.789503 -1.89082,-0.827072 -1.89082,-3.308288 1.73325,0 3.36146,-6.616576 z m -140.76095,6.616576 q 1.52316,0 3.99172,5.789505 l 1.26055,0 q 1.36559,-4.548898 3.36146,-4.962432 l 0.84036,3.308287 0,0.827072 q -0.10505,1.654146 -1.05045,3.308289 l -1.26055,-0.827073 q -1.94334,1.240609 -4.20182,9.097794 -1.05046,-1.447376 -1.05046,-4.962433 0.42019,-4.962431 1.68073,-4.962431 l 0,-0.827073 -0.42018,0 -2.94127,3.308289 q -1.68073,-1.03384 -1.68073,-3.308289 l 0,-2.481217 q 0.36766,-3.308288 1.47064,-3.308288 z m 144.1224,0 q 1.47064,1.03384 1.47064,3.308288 0,5.789506 -1.68073,5.789506 l -3.57155,-3.308289 0,-1.654145 3.78164,-4.13536 z m -8.61373,0.827073 q 0.94541,0 3.78164,4.962432 2.67866,0 2.94127,6.616577 l -0.84036,4.13536 q -3.04632,-8.270721 -3.78164,-8.270721 l 0,-0.827073 0.84036,-0.82707 0,-0.827073 -0.84036,0 0,1.654143 -0.21009,-0.82707 -1.68072,1.654143 q -1.05046,-1.03384 -1.05046,-2.481216 l 0,-1.654145 0.84036,-3.308287 z m -135.71876,1.654143 -0.42019,2.481216 0.42019,1.654146 1.47063,-0.827073 0.84037,0 0,-1.654145 -2.311,-1.654144 z m 142.23159,1.654144 0,1.654145 0.21008,0 2.10091,0.827073 0.21009,-0.827073 0,-1.654145 -0.42018,-1.654144 -2.1009,1.654144 z m -135.0885,1.654145 1.47064,0 0.42018,-1.654145 -0.21009,-0.827072 -0.42019,0 q -1.26054,0.413538 -1.26054,2.481217 z m 128.36558,-0.827073 0.21009,0.827073 1.68073,0 0,-1.654145 -1.47063,-0.827072 -0.42019,1.654144 z m -129.62613,0.827073 0,0.827073 0.84037,0.82707 0.21009,-0.82707 0,-1.654146 -1.05046,0.827073 z"
     style="font-style:normal;font-variant:normal;font-weight:normal;font-stretch:normal;font-size:213.42501831px;line-height:125%;font-family:'Vintage Decorative Signs 4';-inkscape-font-specification:'Vintage Decorative Signs 4, ';letter-spacing:0px;word-spacing:0px;fill:#000000;fill-opacity:1;stroke:none;stroke-width:1px;stroke-linecap:butt;stroke-linejoin:miter;stroke-opacity:1"
     id="path5156-0" />
</svg>
