<svg xmlns="http://www.w3.org/2000/svg" version="1" width="270.454" height="155.828" viewBox="0 0 202.84024 116.87118"><path d="M169.992 2.307c-3.6 1.2-9.3 4.1-12.8 6.5-6.3 4.3-8.2 4.4-3.7.2 1.4-1.3 2.5-2.7 2.5-3.2 0-.4-3.1-.8-6.9-.8-17.5 0-34.3 10.7-40.9 26-2.7 6.4-5.5 27.5-4.2 32.1 1.1 3.8 7.2 10.9 9.4 10.9.7 0 2.5-1.3 4-2.9 5.9-6.1 9.3-4.2 5.7 3.2-2.3 4.8-2.6 6.7-1.1 6.7 2.4 0 8.7-4.1 12.5-8 2.2-2.3 5.1-4.7 6.5-5.4 6.4-3.3 13.9-2.6 19.2 1.9 2.5 2.1 3.8 2.5 6.2 2.1 4.6-.9 12.1-6.2 17.7-12.5 10.3-11.4 19.5-36.3 18.7-50.5-.3-4.5-.6-5.3-3.3-6.6-5.1-2.5-21.6-2.4-29.5.3zm-81.7 78.9c-.4.7-.7 3.8-.7 6.8.2 11.7 9.2 22.3 23.1 27.1 7.2 2.4 8.3 2.4 8.3-.3 0-1.2 1-3.2 2.1-4.5 2.6-2.6 1.9-4-4-7.5-5.2-3.2-18.2-14-22.3-18.7-3.7-4.3-5.2-4.9-6.5-2.9zm-4.5 23.7l-3.3 2.9 2.3 2.4c1.2 1.4 2.2 3.2 2.2 4.1 0 2.6 2.3 3 6.6 1.2 6.9-2.9 7-3.3 1.7-8.7-2.6-2.6-5.1-4.8-5.5-4.8-.4 0-2.2 1.3-4 2.9z"/><path d="M110.042 94.895c-6.826-5.525-11.856-10.35-19.246-18.46-7.544-8.278-10.064-10.356-11.77-9.702-1.332.512-1.084 2.133 1.097 7.167 2.295 5.295 2.4 6.07.83 6.07-2.267 0-6.832-2.914-11.6-7.406-9.336-8.792-16.613-9.984-25.46-4.174-4.292 2.82-5.295 2.98-9.245 1.478-5.747-2.184-14.42-9.46-19.85-16.65-2.61-3.455-6.665-11.444-9.43-18.57C2.35 26.854-.8 9.078.173 5.314 1.193 1.377 10.705-.773 22.645.237 31.332.97 39.68 4.19 47.293 9.74c2.167 1.58 4.136 2.872 4.376 2.872 1.14 0 .19-2.008-2.128-4.483-3.178-3.4-3-3.48 6.594-2.838 7.824.523 11.385 1.423 17.19 4.34C88.17 17.092 96.18 28.61 97.646 44.59c.592 6.466 2.485 16.433 3.777 19.886.98 2.62 2.43 4.493 7.794 10.062 7.283 7.563 7.98 8.88 7.977 15.114 0 3.934-1.322 7.45-2.912 7.744-.512.096-2.423-1.033-4.245-2.51z"/></svg>